<?xml version="1.0" encoding="UTF-8"?>
<!-- Generator: Adobe Illustrator 24.0.1, SVG Export Plug-In . SVG Version: 6.00 Build 0)  -->
<svg version="1.1" id="Laag_1" xmlns="http://www.w3.org/2000/svg" xmlns:xlink="http://www.w3.org/1999/xlink" x="0px" y="0px" width="15.5px" height="15.5px" viewBox="0 0 15.5 15.5" style="" xml:space="preserve">
<style type="text/css">
	.st0{fill:#FFFFFF;}
</style>
<path class="st0" d="M7.8,0c1.4,0,2.7,0.4,3.9,1.1c1.2,0.7,2.1,1.6,2.8,2.8s1.1,2.5,1.1,3.9c0,1.4-0.4,2.7-1.1,3.9s-1.6,2.2-2.8,2.8  s-2.5,1-3.9,1c-1.4,0-2.7-0.3-3.9-1S1.7,12.8,1,11.6S0,9.2,0,7.8c0-1.4,0.3-2.7,1-3.9s1.7-2.1,2.8-2.8C5.1,0.4,6.3,0,7.8,0z   M9.5,10.9C9.6,11,9.7,11,9.8,11c0.1,0,0.2-0.1,0.3-0.2l0.9-1.2C11,9.6,11,9.5,11,9.4c0-0.1-0.1-0.2-0.1-0.3l-2-1.4V3.4  c0-0.1-0.1-0.2-0.1-0.3S8.6,3,8.5,3H7C6.9,3,6.8,3.1,6.7,3.1S6.6,3.3,6.6,3.4v5.3c0,0.1,0,0.3,0.2,0.3L9.5,10.9z"/>
</svg>